<svg xmlns="http://www.w3.org/2000/svg" width="482.848" height="430.071" viewBox="0 0 482.848 430.071">
  <g id="Group_10619" data-name="Group 10619" transform="translate(0 0)">
    <path id="Path_15445" data-name="Path 15445" d="M291.887,750.94l-.42-.156a51.766,51.766,0,0,1-30.493-31.057,50.225,50.225,0,0,1-2.61-12.325l-.034-.4.4.071c4.727.848,9.69,1.317,11.9,1.5l-12.4-8.208.022-.426a9.817,9.817,0,0,1,6.6-8.805,9.986,9.986,0,0,1,10.866,2.67c1.233,1.338,2.537,2.686,3.8,3.989,4.332,4.478,8.812,9.108,11.645,14.573a31.29,31.29,0,0,1,.629,26.928Z" transform="translate(-236.502 -320.869)" fill="#f2f2f2"/>
    <path id="Path_15446" data-name="Path 15446" d="M697.263,746.06l-.005-.044a131.827,131.827,0,0,0-6.638-35.774l0-.019a7.5,7.5,0,0,1,.19-3.568,7.045,7.045,0,0,1,7.854-4.773,15.117,15.117,0,0,0,10.355-1.768,7.367,7.367,0,0,1,6.521-.432,6.828,6.828,0,0,1,4.036,4.623c.042.165.079.331.11.5a105.125,105.125,0,0,0,6.639,35.809l0,.015a7.51,7.51,0,0,1-1.921,6.554,6.974,6.974,0,0,1-5.585,2.052,24.775,24.775,0,0,0-11.711,2.311,6.766,6.766,0,0,1-4.611.324,7.45,7.45,0,0,1-5.233-5.808Z" transform="translate(-390.895 -323.942)" fill="#6c63ff"/>
    <path id="Path_15447" data-name="Path 15447" d="M515.807,508.988V668.859h112V508.988a5.375,5.375,0,0,0-3.788-5.144,4.947,4.947,0,0,0-1.606-.249h-101.2A5.4,5.4,0,0,0,515.807,508.988Zm43.709,54.932a11.956,11.956,0,1,1,23.913,0v18.55a11.956,11.956,0,1,1-23.912,0Z" transform="translate(-328.505 -254.107)" fill="#f2f2f2"/>
    <path id="Path_15448" data-name="Path 15448" d="M515.273,752.731v15.417a3.034,3.034,0,0,0,3.008,3.024H624.951a3.024,3.024,0,0,0,3.009-3.024V752.731Z" transform="translate(-328.314 -343.091)" fill="#e6e6e6"/>
    <path id="Path_15449" data-name="Path 15449" d="M241.717,129.5V421.4a14.04,14.04,0,0,0,14.029,14.029h432.57A14.04,14.04,0,0,0,702.345,421.4V129.5a14.047,14.047,0,0,0-14.029-14.014H255.747A14.047,14.047,0,0,0,241.717,129.5Z" transform="translate(-230.607 -115.485)" fill="#e6e6e6"/>
    <path id="Path_15450" data-name="Path 15450" d="M690.342,131.247H264.989a7.514,7.514,0,0,0-7.5,7.514V423.43a7.511,7.511,0,0,0,7.5,7.5H690.342a7.511,7.511,0,0,0,7.5-7.5V138.76a7.514,7.514,0,0,0-7.5-7.513Zm-107.3,202.245a7.45,7.45,0,0,1-6.665,4.086l-.045,0q-6.116-.852-12.278-1.124a7.41,7.41,0,0,1,1.663,1.645,6.974,6.974,0,0,1,1,5.866,24.776,24.776,0,0,0,.136,11.936,6.766,6.766,0,0,1-.523,4.593,7.45,7.45,0,0,1-6.665,4.086l-.045,0a131.825,131.825,0,0,0-29.393-.783c-.039.247-.087.495-.151.742a24.776,24.776,0,0,0,.136,11.936,6.767,6.767,0,0,1-.523,4.593,7.45,7.45,0,0,1-6.665,4.086l-.045,0a131.822,131.822,0,0,0-30.184-.711,28.1,28.1,0,0,0,.775,7.463,6.767,6.767,0,0,1-.523,4.593,7.45,7.45,0,0,1-6.665,4.086l-.045,0a131.829,131.829,0,0,0-36.385,0h-.019a7.5,7.5,0,0,1-3.473-.838,7.045,7.045,0,0,1-3.261-8.594,18.217,18.217,0,0,0,.81-3.174,131.826,131.826,0,0,0-33.269.392h-.02a7.5,7.5,0,0,1-3.473-.838,7.045,7.045,0,0,1-3.261-8.593,15.117,15.117,0,0,0,.151-10.5,7.364,7.364,0,0,1,0-4.939,131.828,131.828,0,0,0-24.9,1.09h-.019a7.5,7.5,0,0,1-3.473-.838,7.045,7.045,0,0,1-3.261-8.593,15.117,15.117,0,0,0,.151-10.5,7.367,7.367,0,0,1,.765-6.49,6.828,6.828,0,0,1,5.281-3.125c.169-.011.34-.017.512-.017a106.163,106.163,0,0,0,12.773,1.443,7.07,7.07,0,0,1-2.768-8.306,15.116,15.116,0,0,0,.151-10.5,7.367,7.367,0,0,1,.765-6.49c.054-.083.117-.157.174-.237q-4.572.315-9.122.948h-.019a7.5,7.5,0,0,1-3.473-.838,7.045,7.045,0,0,1-3.261-8.593,15.117,15.117,0,0,0,.151-10.5,7.367,7.367,0,0,1,.765-6.49,6.828,6.828,0,0,1,5.281-3.125c.169-.011.34-.017.512-.017a105.942,105.942,0,0,0,15.373,1.548,7.171,7.171,0,0,1-.868-6.482,15.117,15.117,0,0,0,.151-10.5,7.367,7.367,0,0,1,.765-6.49,6.828,6.828,0,0,1,5.281-3.125c.169-.011.34-.017.512-.017a106.142,106.142,0,0,0,13,1.455,7.185,7.185,0,0,1-.422-5.747,15.117,15.117,0,0,0,.151-10.5,7.367,7.367,0,0,1,.765-6.49,6.828,6.828,0,0,1,5.281-3.125c.17-.011.34-.017.512-.017a105.947,105.947,0,0,0,15.307,1.545,7.192,7.192,0,0,1-.16-5.195,15.117,15.117,0,0,0,.151-10.5,7.367,7.367,0,0,1,.765-6.49,6.828,6.828,0,0,1,5.281-3.125c.169-.011.34-.017.512-.017a105.123,105.123,0,0,0,36.419,0h.015a6.984,6.984,0,0,0,2.819,0h.015a105.123,105.123,0,0,0,36.419,0c.172,0,.342.006.512.017a6.828,6.828,0,0,1,5.281,3.125,7.367,7.367,0,0,1,.765,6.49,15.117,15.117,0,0,0,.151,10.5,7.192,7.192,0,0,1-.16,5.195,105.944,105.944,0,0,0,15.307-1.545c.172,0,.342.006.512.017a6.828,6.828,0,0,1,5.281,3.125,7.366,7.366,0,0,1,.765,6.49,15.117,15.117,0,0,0,.151,10.5,7.185,7.185,0,0,1-.422,5.747,106.14,106.14,0,0,0,13-1.455c.172,0,.342.006.512.017a6.828,6.828,0,0,1,5.281,3.125,7.367,7.367,0,0,1,.765,6.49,15.117,15.117,0,0,0,.151,10.5,7.172,7.172,0,0,1-.877,6.5,7.407,7.407,0,0,1,1.507,1.528,6.974,6.974,0,0,1,1,5.866,24.777,24.777,0,0,0,.136,11.936,6.766,6.766,0,0,1-.523,4.593,7.551,7.551,0,0,1-.94,1.417q4.514-.4,9.005-1.184h.015a7.51,7.51,0,0,1,6.094,3.084,6.974,6.974,0,0,1,1,5.866,24.775,24.775,0,0,0,.136,11.936A6.766,6.766,0,0,1,583.045,333.492Z" transform="translate(-236.241 -121.115)" fill="#fff"/>
    <path id="Path_15451" data-name="Path 15451" d="M687.364,190.491h-398a1.583,1.583,0,1,1,0-3.166h398a1.583,1.583,0,1,1,0,3.166Z" transform="translate(-247.06 -141.144)" fill="#e6e6e6"/>
    <ellipse id="Ellipse_1388" data-name="Ellipse 1388" cx="9.276" cy="9.482" rx="9.276" ry="9.482" transform="translate(60.12 19.136)" fill="#3f3d56"/>
    <ellipse id="Ellipse_1389" data-name="Ellipse 1389" cx="9.276" cy="9.482" rx="9.276" ry="9.482" transform="translate(92.163 19.136)" fill="#3f3d56"/>
    <ellipse id="Ellipse_1390" data-name="Ellipse 1390" cx="9.276" cy="9.482" rx="9.276" ry="9.482" transform="translate(124.206 19.136)" fill="#3f3d56"/>
    <path id="Path_15452" data-name="Path 15452" d="M865.786,148.9H843.027a1.723,1.723,0,0,0,0,3.445h22.759a1.723,1.723,0,1,0,0-3.445Z" transform="translate(-444.777 -127.42)" fill="#3f3d56"/>
    <path id="Path_15453" data-name="Path 15453" d="M865.786,158.964H843.027a1.723,1.723,0,0,0,0,3.445h22.759a1.723,1.723,0,1,0,0-3.445Z" transform="translate(-444.777 -131.014)" fill="#3f3d56"/>
    <path id="Path_15454" data-name="Path 15454" d="M865.786,169.027H843.028a1.723,1.723,0,0,0,0,3.445h22.759a1.723,1.723,0,1,0,0-3.445Z" transform="translate(-444.777 -134.609)" fill="#3f3d56"/>
    <path id="Path_15455" data-name="Path 15455" d="M583.064,522l-.045,0a131.825,131.825,0,0,0-36.385,0h-.019a7.5,7.5,0,0,1-3.473-.838,7.045,7.045,0,0,1-3.261-8.593,15.117,15.117,0,0,0,.151-10.5,7.366,7.366,0,0,1,.765-6.49,6.828,6.828,0,0,1,5.281-3.125c.169-.011.34-.017.512-.017a105.123,105.123,0,0,0,36.419,0h.015a7.51,7.51,0,0,1,6.094,3.084,6.974,6.974,0,0,1,1,5.866,24.776,24.776,0,0,0,.136,11.936,6.767,6.767,0,0,1-.523,4.593A7.45,7.45,0,0,1,583.064,522Z" transform="translate(-336.952 -250.117)" fill="#6c63ff"/>
    <path id="Path_15456" data-name="Path 15456" d="M632.291,435.913l-9.71-8.036c-7.282,3.817-18.362,19.054-18.362,19.054l-25.561,18.384a5.565,5.565,0,1,0,5.219,8.092l34.73-18.353Z" transform="translate(-349.06 -227.063)" fill="#ffb8b8"/>
    <path id="Path_15457" data-name="Path 15457" d="M657.37,391.044h0a13.3,13.3,0,0,1-.206,20.466l-6.175,5.02s-15.4,22.173-23.42,24.746l-20.583,10.753-9.281-9.305,18.654-15.2s8.58-8.115,9.439-14.056c.526-3.638,6.683-13.548,12.855-20.9a13.264,13.264,0,0,1,18.716-1.522Z" transform="translate(-357.756 -212.777)" fill="#3f3d56"/>
    <path id="Path_15458" data-name="Path 15458" d="M427.85,632.87h-8.773L414.9,599.031h12.948Z" transform="translate(-148.192 -213.957)" fill="#ffb6b6"/>
    <path id="Path_15459" data-name="Path 15459" d="M644.969,773.291H617.991v-.341a10.5,10.5,0,0,1,10.5-10.5h0l4.928-3.738,9.194,3.739h2.355Z" transform="translate(-365.002 -345.227)" fill="#2f2e41"/>
    <path id="Path_15460" data-name="Path 15460" d="M519.061,570.938l-4.155,7.726-31.78-12.347,6.132-11.4Z" transform="translate(-172.559 -198.199)" fill="#ffb6b6"/>
    <path id="Path_15461" data-name="Path 15461" d="M765.89,698.792l-12.776,23.761-.3-.162a10.5,10.5,0,0,1-4.276-14.221h0l-.959-6.111,7.647-6.327,1.115-2.074Z" transform="translate(-411.182 -321.992)" fill="#2f2e41"/>
    <path id="Path_15462" data-name="Path 15462" d="M629.374,526.095l-7.743,61.943L625.5,608.8l69.686,30.529,3.871-12.582c-17.812-10.9-36.854-27.4-48.852-28.608,0,0-1-10.993,7.6-17.776,1.734-1.369,1.355-3.22,2.056-4.9.482-1.154,2.4-2.356,2.892-3.541.637-1.535-.151-3.059.489-4.619.36-.877,1.725-.932,2.082-1.809.61-1.5.211-3.814.805-5.294,1.271-3.16,2.492-6.25,3.608-9.147,3.472-9.017,5.915-16.162,5.607-17.7C674.379,528.515,629.374,526.095,629.374,526.095Z" transform="translate(-366.302 -262.143)" fill="#2f2e41"/>
    <path id="Path_15463" data-name="Path 15463" d="M629.35,622.176,625.3,648.335l10.224,53.384h13.55c4.868-17.937,5.119-41.513.484-61.459Z" transform="translate(-367.612 -296.461)" fill="#2f2e41"/>
    <path id="Path_15464" data-name="Path 15464" d="M640.5,398.25l6.246-10.884,6.707-5.38,12.582-1.936,3.5,2.688h0a89.368,89.368,0,0,1,13.1,65.156l-.982,5.319-.623,3.376.27,4.035-2.1,5.875.289,4.3.154,2.3.155,2.306.216,3.219c.387,1.837-1.561,1.595-1.286,3.214.484,2.844,2.654,7.058-.643,7.071l-34.07-7.071c-8.655.036-16.714-10.285-8.357-18.642Z" transform="translate(-370.054 -209.98)" fill="#3f3d56"/>
    <circle id="Ellipse_1391" data-name="Ellipse 1391" cx="16.544" cy="16.544" r="16.544" transform="translate(269.847 133.95)" fill="#ffb8b8"/>
    <path id="Path_15465" data-name="Path 15465" d="M659.769,354.637a42.523,42.523,0,0,0,7.232-.505c2.371-.482,7.675-4.369,9.153-6.708h0a20.887,20.887,0,0,0,2.2-6.422,19,19,0,0,0-3.324-15.087,6,6,0,0,0-2.425-2.07c-.087-.034-.176-.064-.267-.09a7.408,7.408,0,0,1-3.685-2.28,6.107,6.107,0,0,0-.613-.63,9.125,9.125,0,0,0-3.807-1.912c-2.263-.606-5.539,0-9.735,1.789a10.239,10.239,0,0,1-6.187.19.58.58,0,0,0-.546.187,4.1,4.1,0,0,1-2.784,1.11c-.634.028-1.3.906-2.1,2.05-.182.26-.4.563-.549.748l-.021-.354-.359.4a4.971,4.971,0,0,0,2.245,8.1,9.694,9.694,0,0,0,1.95.311c.4.036.812.073,1.208.142a7.5,7.5,0,0,1,5.57,4.864,1.96,1.96,0,0,0,2.959.952,3.239,3.239,0,0,1,2.951-.537,2.15,2.15,0,0,1,.95,1.078,2.8,2.8,0,0,0,1.063,1.24c1.607.828,1.717,4.5,1.14,7.557-.556,2.949-1.656,5.082-2.674,5.187-.784.081-.873.137-.93.275l-.051.124.088.116A3.2,3.2,0,0,0,659.769,354.637Z" transform="translate(-373.097 -188.069)" fill="#2f2e41"/>
    <path id="Path_15466" data-name="Path 15466" d="M594.064,343l-.045,0a131.827,131.827,0,0,0-36.385,0h-.019a7.5,7.5,0,0,1-3.473-.838,7.045,7.045,0,0,1-3.261-8.593,15.117,15.117,0,0,0,.151-10.5,7.367,7.367,0,0,1,.765-6.49,6.828,6.828,0,0,1,5.281-3.125c.17-.011.34-.017.512-.017a105.123,105.123,0,0,0,36.419,0h.015a7.51,7.51,0,0,1,6.094,3.084,6.975,6.975,0,0,1,1,5.866,24.776,24.776,0,0,0,.136,11.936,6.766,6.766,0,0,1-.523,4.593A7.45,7.45,0,0,1,594.064,343Z" transform="translate(-340.881 -186.184)" fill="#6c63ff"/>
    <path id="Path_15467" data-name="Path 15467" d="M616.51,389.769l6.846-10.583c-4.642-6.786-21.07-16.01-21.07-16.01l-21.245-23.238a5.565,5.565,0,1,0-7.427,6.129L595.9,378.415Z" transform="translate(-347.856 -193.992)" fill="#ffb8b8"/>
    <path id="Path_15468" data-name="Path 15468" d="M654.169,409.106h0a13.3,13.3,0,0,1-20.35,2.187l-5.707-5.546s-23.923-12.492-27.414-20.153l-15.675-22.234,10.51-9.481L613.8,370.486s8.411,9.726,14.411,9.885c3.675.1,14.237,5.054,22.258,10.325a13.264,13.264,0,0,1,3.7,18.41Z" transform="translate(-353.226 -200.633)" fill="#3f3d56"/>
    <path id="Path_15469" data-name="Path 15469" d="M420.45,764.814l-.045,0a131.825,131.825,0,0,0-36.385,0H384a7.5,7.5,0,0,1-3.473-.838,7.045,7.045,0,0,1-3.261-8.593,15.117,15.117,0,0,0,.151-10.5,7.367,7.367,0,0,1,.765-6.49,6.828,6.828,0,0,1,5.281-3.125c.169-.011.34-.017.512-.017a105.123,105.123,0,0,0,36.419,0h.015a7.51,7.51,0,0,1,6.094,3.084,6.975,6.975,0,0,1,1,5.866,24.775,24.775,0,0,0,.136,11.936,6.766,6.766,0,0,1-.523,4.593A7.45,7.45,0,0,1,420.45,764.814Z" transform="translate(-278.871 -336.846)" fill="#6c63ff"/>
    <path id="Path_15470" data-name="Path 15470" d="M436.45,722.814l-.045,0a131.83,131.83,0,0,0-36.385,0H400a7.5,7.5,0,0,1-3.473-.838,7.045,7.045,0,0,1-3.261-8.593,15.117,15.117,0,0,0,.151-10.5,7.367,7.367,0,0,1,.765-6.49,6.828,6.828,0,0,1,5.281-3.125c.169-.011.34-.017.512-.017a105.124,105.124,0,0,0,36.419,0h.015a7.51,7.51,0,0,1,6.094,3.084,6.975,6.975,0,0,1,1,5.866,24.775,24.775,0,0,0,.136,11.936,6.767,6.767,0,0,1-.523,4.593A7.45,7.45,0,0,1,436.45,722.814Z" transform="translate(-284.585 -321.844)" fill="#6c63ff"/>
    <path id="Path_15471" data-name="Path 15471" d="M319.949,732.142l.028-.035a131.829,131.829,0,0,0,20.387-30.137l.011-.016a7.5,7.5,0,0,1,2.64-2.407,7.045,7.045,0,0,1,8.945,2.114,15.116,15.116,0,0,0,8.615,6.01,7.367,7.367,0,0,1,4.947,4.27,6.828,6.828,0,0,1-.371,6.125c-.086.147-.176.291-.272.433a105.123,105.123,0,0,0-20.41,30.162l-.008.013a7.51,7.51,0,0,1-5.969,3.319,6.974,6.974,0,0,1-5.418-2.46,24.776,24.776,0,0,0-9.962-6.576,6.766,6.766,0,0,1-3.511-3.007,7.45,7.45,0,0,1,.35-7.81Z" transform="translate(-258.089 -323.813)" fill="#6c63ff"/>
    <path id="Path_15472" data-name="Path 15472" d="M706.517,781.918l-481.317.2a.765.765,0,1,1,0-1.531l481.317-.2a.765.765,0,0,1,0,1.531Z" transform="translate(-224.434 -352.97)" fill="#cacaca"/>
  </g>
</svg>
